<svg width="30" height="40" viewBox="0 0 30 40" fill="none" xmlns="http://www.w3.org/2000/svg">
<path d="M0.333344 39.3333C0.333344 35.4435 1.87858 31.7129 4.62911 28.9624C7.37964 26.2119 11.1102 24.6666 15 24.6666C18.8899 24.6666 22.6204 26.2119 25.3709 28.9624C28.1214 31.7129 29.6667 35.4435 29.6667 39.3333H26C26 36.4159 24.8411 33.618 22.7782 31.5551C20.7153 29.4922 17.9174 28.3333 15 28.3333C12.0826 28.3333 9.28473 29.4922 7.22184 31.5551C5.15894 33.618 4.00001 36.4159 4.00001 39.3333H0.333344ZM15 22.8333C8.92251 22.8333 4.00001 17.9108 4.00001 11.8333C4.00001 5.75581 8.92251 0.833313 15 0.833313C21.0775 0.833313 26 5.75581 26 11.8333C26 17.9108 21.0775 22.8333 15 22.8333ZM15 19.1666C19.0517 19.1666 22.3333 15.885 22.3333 11.8333C22.3333 7.78165 19.0517 4.49998 15 4.49998C10.9483 4.49998 7.66668 7.78165 7.66668 11.8333C7.66668 15.885 10.9483 19.1666 15 19.1666Z" fill="#FB9400"/>
</svg>
