<svg width="34" height="41" viewBox="0 0 34 41" fill="none" xmlns="http://www.w3.org/2000/svg">
<path d="M17 35.3167L26.075 26.2417C27.8696 24.4468 29.0918 22.1602 29.5868 19.6708C30.0819 17.1814 29.8277 14.6011 28.8563 12.2562C27.885 9.91128 26.2401 7.90706 24.1297 6.49697C22.0193 5.08689 19.5381 4.33426 17 4.33426C14.4619 4.33426 11.9807 5.08689 9.87033 6.49697C7.75992 7.90706 6.11504 9.91128 5.14368 12.2562C4.17232 14.6011 3.9181 17.1814 4.41317 19.6708C4.90824 22.1602 6.13036 24.4468 7.92501 26.2417L17 35.3167ZM17 40.5013L5.33267 28.834C3.02513 26.5264 1.45368 23.5864 0.817035 20.3857C0.180396 17.185 0.507163 13.8675 1.75601 10.8525C3.00487 7.83752 5.11971 5.26058 7.83312 3.44755C10.5465 1.63451 13.7366 0.666809 17 0.666809C20.2634 0.666809 23.4535 1.63451 26.1669 3.44755C28.8803 5.26058 30.9951 7.83752 32.244 10.8525C33.4928 13.8675 33.8196 17.185 33.183 20.3857C32.5463 23.5864 30.9749 26.5264 28.6673 28.834L17 40.5013ZM17 20.8333C17.9725 20.8333 18.9051 20.447 19.5927 19.7594C20.2804 19.0718 20.6667 18.1391 20.6667 17.1667C20.6667 16.1942 20.2804 15.2616 19.5927 14.5739C18.9051 13.8863 17.9725 13.5 17 13.5C16.0275 13.5 15.0949 13.8863 14.4073 14.5739C13.7196 15.2616 13.3333 16.1942 13.3333 17.1667C13.3333 18.1391 13.7196 19.0718 14.4073 19.7594C15.0949 20.447 16.0275 20.8333 17 20.8333ZM17 24.5C15.0551 24.5 13.1898 23.7274 11.8146 22.3521C10.4393 20.9768 9.66667 19.1116 9.66667 17.1667C9.66667 15.2217 10.4393 13.3565 11.8146 11.9812C13.1898 10.6059 15.0551 9.83333 17 9.83333C18.9449 9.83333 20.8102 10.6059 22.1855 11.9812C23.5607 13.3565 24.3333 15.2217 24.3333 17.1667C24.3333 19.1116 23.5607 20.9768 22.1855 22.3521C20.8102 23.7274 18.9449 24.5 17 24.5Z" fill="#FB9400"/>
</svg>
